<svg width="101" height="50" viewBox="0 0 101 50" fill="none" xmlns="http://www.w3.org/2000/svg">
<g filter="url(#filter0_d_0_202)">
<path d="M93.0448 0H7.95523C4.03909 0 0.864433 2.94217 0.864433 6.57152V41.6197C0.864433 45.249 4.03909 48.1912 7.95523 48.1912H93.0448C96.9609 48.1912 100.136 45.249 100.136 41.6197V6.57152C100.136 2.94217 96.9609 0 93.0448 0Z" fill="black"/>
</g>
<path d="M93.0448 0H7.95523C4.03909 0 0.864433 2.94217 0.864433 6.57152V41.6197C0.864433 45.249 4.03909 48.1912 7.95523 48.1912H93.0448C96.9609 48.1912 100.136 45.249 100.136 41.6197V6.57152C100.136 2.94217 96.9609 0 93.0448 0Z" fill="#CBCED5"/>
<path fill-rule="evenodd" clip-rule="evenodd" d="M63.5002 32.8577H44.3349L37.7582 24.0957L44.3349 15.3336H63.5002V32.8577ZM64.682 13.1431H43.718C43.3316 13.1431 42.9688 13.3184 42.7478 13.613L35.3485 23.4703C35.0661 23.846 35.0661 24.3454 35.3485 24.7211L42.7478 34.5784C42.9688 34.873 43.3316 35.0482 43.718 35.0482H64.682C65.3343 35.0482 65.8638 34.5575 65.8638 33.953V14.2384C65.8638 13.6338 65.3343 13.1431 64.682 13.1431ZM47.8922 28.4296C48.1226 28.6432 48.4251 28.7505 48.7277 28.7505C49.0302 28.7505 49.3328 28.6432 49.5632 28.4296L52.5685 25.6444L55.5739 28.4296C55.8043 28.6432 56.1068 28.7505 56.4094 28.7505C56.7119 28.7505 57.0145 28.6432 57.2449 28.4296C57.707 28.0014 57.707 27.3091 57.2449 26.8809L54.2396 24.0957L57.2449 21.3104C57.707 20.8822 57.707 20.19 57.2449 19.7618C56.7828 19.3335 56.0359 19.3335 55.5739 19.7618L52.5685 22.547L49.5632 19.7618C49.1011 19.3335 48.3542 19.3335 47.8922 19.7618C47.4301 20.19 47.4301 20.8822 47.8922 21.3104L50.8975 24.0957L47.8922 26.8809C47.4301 27.3091 47.4301 28.0014 47.8922 28.4296Z" fill="black"/>
<defs>
<filter id="filter0_d_0_202" x="-1.98292e-05" y="0" width="101" height="49.9201" filterUnits="userSpaceOnUse" color-interpolation-filters="sRGB">
<feFlood flood-opacity="0" result="BackgroundImageFix"/>
<feColorMatrix in="SourceAlpha" type="matrix" values="0 0 0 0 0 0 0 0 0 0 0 0 0 0 0 0 0 0 127 0" result="hardAlpha"/>
<feOffset dy="0.862691"/>
<feGaussianBlur stdDeviation="0.431345"/>
<feColorMatrix type="matrix" values="0 0 0 0 0 0 0 0 0 0 0 0 0 0 0 0 0 0 0.36 0"/>
<feBlend mode="normal" in2="BackgroundImageFix" result="effect1_dropShadow_0_202"/>
<feBlend mode="normal" in="SourceGraphic" in2="effect1_dropShadow_0_202" result="shape"/>
</filter>
</defs>
</svg>
