<svg width="13" height="13" viewBox="0 0 13 13" fill="none" xmlns="http://www.w3.org/2000/svg">
<path fill-rule="evenodd" clip-rule="evenodd" d="M1.89587 5.58895C1.89587 3.09735 3.97798 1.0835 6.49649 1.0835C9.02211 1.0835 11.1042 3.09735 11.1042 5.58895C11.1042 6.8445 10.6476 8.01013 9.89602 8.9981C9.0669 10.0879 8.04496 11.0374 6.89467 11.7827C6.6314 11.955 6.39381 11.968 6.10487 11.7827C4.94802 11.0374 3.92609 10.0879 3.10406 8.9981C2.35195 8.01013 1.89587 6.8445 1.89587 5.58895ZM4.98025 5.72922C4.98025 6.56391 5.66135 7.22039 6.49649 7.22039C7.33217 7.22039 8.01983 6.56391 8.01983 5.72922C8.01983 4.90104 7.33217 4.2126 6.49649 4.2126C5.66135 4.2126 4.98025 4.90104 4.98025 5.72922Z" fill="#ADADAD"/>
</svg>
