<svg width="13" height="13" viewBox="0 0 13 13" fill="none" xmlns="http://www.w3.org/2000/svg">
<path d="M9.70585 7.7565C9.56556 7.89246 9.5011 8.08909 9.53306 8.28192L10.0146 10.9469C10.0552 11.1728 9.9599 11.4014 9.77085 11.5319C9.5856 11.6673 9.33914 11.6836 9.1371 11.5753L6.73806 10.324C6.65465 10.2796 6.56202 10.2558 6.46723 10.253H6.32044C6.26952 10.2606 6.21969 10.2769 6.17419 10.3018L3.7746 11.559C3.65598 11.6186 3.52165 11.6397 3.39002 11.6186C3.06935 11.5579 2.8554 11.2524 2.90794 10.9301L3.39002 8.26513C3.42198 8.07067 3.35752 7.87296 3.21723 7.73484L1.26127 5.839C1.09769 5.6803 1.04081 5.44196 1.11556 5.22692C1.18815 5.01242 1.3734 4.85588 1.5971 4.82067L4.28919 4.43013C4.49394 4.409 4.67377 4.28442 4.76585 4.10025L5.9521 1.66817C5.98027 1.614 6.01656 1.56417 6.06044 1.52192L6.10919 1.484C6.13465 1.45584 6.1639 1.43255 6.1964 1.41359L6.25544 1.39192L6.34752 1.354H6.57556C6.77923 1.37513 6.95852 1.497 7.05223 1.679L8.25419 4.10025C8.34085 4.27738 8.50931 4.40034 8.70377 4.43013L11.3959 4.82067C11.6234 4.85317 11.8135 5.01025 11.8888 5.22692C11.9597 5.44413 11.8985 5.68246 11.7317 5.839L9.70585 7.7565Z" fill="#199A8E"/>
</svg>
