<svg width="10" height="10" viewBox="0 0 10 10" fill="none" xmlns="http://www.w3.org/2000/svg">
<path fill-rule="evenodd" clip-rule="evenodd" d="M1.45834 4.29923C1.45834 2.38262 3.05996 0.833496 4.99728 0.833496C6.94006 0.833496 8.54168 2.38262 8.54168 4.29923C8.54168 5.26503 8.19043 6.16167 7.6123 6.92165C6.97451 7.75996 6.18841 8.49036 5.30357 9.06367C5.10106 9.19617 4.91829 9.20617 4.69603 9.06367C3.80615 8.49036 3.02005 7.75996 2.38772 6.92165C1.80917 6.16167 1.45834 5.26503 1.45834 4.29923ZM3.83094 4.40714C3.83094 5.0492 4.35487 5.55419 4.99728 5.55419C5.64011 5.55419 6.16908 5.0492 6.16908 4.40714C6.16908 3.77007 5.64011 3.2405 4.99728 3.2405C4.35487 3.2405 3.83094 3.77007 3.83094 4.40714Z" fill="#A1A8B0"/>
</svg>
