<svg width="24" height="27" viewBox="0 0 24 27" fill="none" xmlns="http://www.w3.org/2000/svg">
<path d="M14.5299 10.6012L9.46992 16.2656C8.81992 15.538 8.41992 14.5417 8.41992 13.4334C8.41992 11.2169 10.0199 9.42578 11.9999 9.42578C12.9899 9.42578 13.8799 9.87356 14.5299 10.6012Z" stroke="#A1A8B0" stroke-width="1.5" stroke-linecap="round" stroke-linejoin="round"/>
<path d="M17.8201 6.45922C16.0701 4.98154 14.0701 4.17554 12.0001 4.17554C8.47009 4.17554 5.18009 6.504 2.89009 10.534C1.99009 12.1125 1.99009 14.7656 2.89009 16.344C3.68009 17.7321 4.60009 18.9299 5.60009 19.8927" stroke="#A1A8B0" stroke-width="1.5" stroke-linecap="round" stroke-linejoin="round"/>
<path d="M8.41992 21.863C9.55992 22.4003 10.7699 22.6914 11.9999 22.6914C15.5299 22.6914 18.8199 20.3629 21.1099 16.3329C22.0099 14.7545 22.0099 12.1013 21.1099 10.5229C20.7799 9.9408 20.4199 9.39227 20.0499 8.87732" stroke="#A1A8B0" stroke-width="1.5" stroke-linecap="round" stroke-linejoin="round"/>
<path d="M15.5099 14.217C15.2499 15.7955 14.0999 17.0828 12.6899 17.3739" stroke="#A1A8B0" stroke-width="1.5" stroke-linecap="round" stroke-linejoin="round"/>
<path d="M9.47 16.2656L2 24.6279" stroke="#A1A8B0" stroke-width="1.5" stroke-linecap="round" stroke-linejoin="round"/>
<path d="M22 2.23889L14.53 10.6012" stroke="#A1A8B0" stroke-width="1.5" stroke-linecap="round" stroke-linejoin="round"/>
</svg>
